<svg xmlns="http://www.w3.org/2000/svg" height="15" viewBox="0 0 18 15" width="18"><path d="m71.7421875 415.75c.546875 0 .9388021-.264323 1.1757813-.792969l-1.0390626-.4375h-.0273437l-.0273437-.027343c-.3828126-.182292-.5742188-.492188-.5742188-.929688s.1914062-.75651.5742188-.957031h.0273437l.0273437-.027344 1.0390626-.410156.4101562-1.039063.0273438-.027344v-.027343c.109375-.200521.282552-.355469.5195312-.464844v-4.921875c0-.236979-.0865885-.442057-.2597656-.615234s-.3782552-.259766-.6152344-.259766-.4420573.086589-.6152344.259766-.2597656.378255-.2597656.615234v1.96875c0 .145833-.0729167.21875-.21875.21875h-.4375c-.1458333 0-.21875-.072917-.21875-.21875v-4.15625c0-.236979-.0865885-.442057-.2597656-.615234s-.3782552-.259766-.6152344-.259766-.4420573.086589-.6152344.259766-.2597656.378255-.2597656.615234v4.15625c0 .145833-.0729167.21875-.21875.21875h-.4375c-.1458333 0-.21875-.072917-.21875-.21875v-5.03125c0-.236979-.0865885-.442057-.2597656-.615234s-.3782552-.259766-.6152344-.259766-.4420573.086589-.6152344.259766-.2597656.378255-.2597656.615234v5.03125c0 .145833-.0729167.21875-.21875.21875h-.4375c-.1458333 0-.21875-.072917-.21875-.21875v-4.15625c0-.236979-.0865885-.442057-.2597656-.615234s-.3782552-.259766-.6152344-.259766-.4420573.086589-.6152344.259766-.2597656.378255-.2597656.615234v6.589844l-.65625-.875c-.21875-.309896-.5104167-.464844-.875-.464844-.3098958 0-.5696615.104818-.7792969.314453-.2096354.209636-.3144531.469401-.3144531.779297 0 .236979.0729167.455729.21875.65625l3.4179688 4.703125c.2734374.364583.6289062.546875 1.0664062.546875zm-10.5546875-7.875c.0729167 0 .1276042-.036458.1640625-.109375l.5742187-1.339844 1.3398438-.574219c.0729167-.036458.109375-.091145.109375-.164062s-.0364583-.127604-.109375-.164062l-1.3398438-.574219-.5742187-1.339844c-.0364583-.072917-.0911458-.109375-.1640625-.109375s-.1276042.036458-.1640625.109375l-.5742187 1.339844-1.3398438.574219c-.0729167.036458-.109375.091145-.109375.164062 0 .036458.0091146.068359.0273438.095703.0182291.027344.0455729.05013.0820312.068359l1.3398438.574219.5742187 1.339844c.0364583.072917.0911458.109375.1640625.109375zm6.125 4.375c-.0364583 0-.0729167-.018229-.109375-.054688l-.328125-.820312-.8203125-.328125c-.0364583-.036458-.0546875-.077474-.0546875-.123047s.0182292-.077474.0546875-.095703l.8203125-.328125.328125-.820312c.0364583-.036459.0729167-.054688.109375-.054688s.0729167.018229.109375.054688l.328125.820312.8203125.328125c.0364583.018229.0546875.05013.0546875.095703s-.0182292.086589-.0546875.123047l-.8203125.328125-.328125.820312c-.0364583.036459-.0729167.054688-.109375.054688zm7 3.5c.0729167 0 .1276042-.036458.1640625-.109375l.5742187-1.339844 1.3398438-.574219c.0729167-.036458.109375-.091145.109375-.164062l-.0068359-.05127c-.0136719-.047851-.0478516-.085449-.1025391-.112792l-1.3398438-.574219-.5742187-1.339844c-.0364583-.072917-.0911458-.109375-.1640625-.109375s-.1276042.036458-.1640625.109375l-.5742187 1.339844-1.3398438.574219c-.0729167.036458-.109375.091145-.109375.164062s.0364583.127604.109375.164062l1.3398438.574219.5742187 1.339844c.0364583.072917.0911458.109375.1640625.109375z" transform="translate(-59 -401)"/></svg>