<svg xmlns="http://www.w3.org/2000/svg" viewBox="0 0 270 113" width="270" height="113" preserveAspectRatio="xMidYMid meet" style="width: 100%; height: 100%; transform: translate3d(0px, 0px, 0px);"><defs><clipPath id="__lottie_element_2"><rect width="270" height="113" x="0" y="0"/></clipPath><clipPath id="__lottie_element_5"><path d="M0,0 L1225,0 L1225,800 L0,800z"/></clipPath></defs><g clip-path="url(#__lottie_element_2)"><g clip-path="url(#__lottie_element_5)" style="display: block;" transform="matrix(1,0,0,1,-463.5,-542)" opacity="1"><g style="display: block;" transform="matrix(1,0,0,1,612.75,405)" opacity="1"><g opacity="1" transform="matrix(1,0,0,1,0,-0.25)"><path fill="rgb(0,0,0)" fill-opacity="1" d=" M2.3589999675750732,201.56199645996094 C2.3589999675750732,201.56199645996094 -10.640999794006348,214.375 -10.640999794006348,214.375 C-10.640999794006348,214.375 -23.375,201.281005859375 -23.375,201.281005859375 C-23.375,201.281005859375 -23.375,214.781005859375 -23.375,214.781005859375 C-23.375,214.781005859375 -10.640999794006348,228 -10.640999794006348,228 C-10.640999794006348,228 2.3589999675750732,215.18800354003906 2.3589999675750732,215.18800354003906 C2.3589999675750732,215.18800354003906 2.3589999675750732,201.56199645996094 2.3589999675750732,201.56199645996094z"/><path stroke-linecap="butt" stroke-linejoin="miter" fill-opacity="0" stroke-miterlimit="4" stroke="rgb(255,255,255)" stroke-opacity="1" stroke-width="0" d=" M2.3589999675750732,201.56199645996094 C2.3589999675750732,201.56199645996094 -10.640999794006348,214.375 -10.640999794006348,214.375 C-10.640999794006348,214.375 -23.375,201.281005859375 -23.375,201.281005859375 C-23.375,201.281005859375 -23.375,214.781005859375 -23.375,214.781005859375 C-23.375,214.781005859375 -10.640999794006348,228 -10.640999794006348,228 C-10.640999794006348,228 2.3589999675750732,215.18800354003906 2.3589999675750732,215.18800354003906 C2.3589999675750732,215.18800354003906 2.3589999675750732,201.56199645996094 2.3589999675750732,201.56199645996094z"/></g></g><g style="display: block;" transform="matrix(1,0,0,1,612.75,389)" opacity="1"><g opacity="1" transform="matrix(1,0,0,1,0,0)"><path fill="rgb(0,0,0)" fill-opacity="1" d=" M2.375,201.218994140625 C2.375,201.218994140625 -10.625,214.25 -10.625,214.25 C-10.625,214.25 -23.375,200.968994140625 -23.375,200.968994140625 C-23.375,200.968994140625 -23.375,214.468994140625 -23.375,214.468994140625 C-23.375,214.468994140625 -10.625,227.875 -10.625,227.875 C-10.625,227.875 2.375,214.843994140625 2.375,214.843994140625 C2.375,214.843994140625 2.375,201.218994140625 2.375,201.218994140625z"/><path stroke-linecap="butt" stroke-linejoin="miter" fill-opacity="0" stroke-miterlimit="4" stroke="rgb(255,255,255)" stroke-opacity="1" stroke-width="0" d=" M2.375,201.218994140625 C2.375,201.218994140625 -10.625,214.25 -10.625,214.25 C-10.625,214.25 -23.375,200.968994140625 -23.375,200.968994140625 C-23.375,200.968994140625 -23.375,214.468994140625 -23.375,214.468994140625 C-23.375,214.468994140625 -10.625,227.875 -10.625,227.875 C-10.625,227.875 2.375,214.843994140625 2.375,214.843994140625 C2.375,214.843994140625 2.375,201.218994140625 2.375,201.218994140625z"/></g></g><g style="display: block;" transform="matrix(1,0,0,1,612.75,373.0025939941406)" opacity="1"><g opacity="1" transform="matrix(1,0,0,1,0,0)"><path fill="rgb(0,0,0)" fill-opacity="1" d=" M2.375,200.98399353027344 C2.375,200.98399353027344 -10.625,214.48399353027344 -10.625,214.48399353027344 C-10.625,214.48399353027344 -23.375,201.125 -23.375,201.125 C-23.375,201.125 -23.375,214.625 -23.375,214.625 C-23.375,214.625 -10.625,228.10899353027344 -10.625,228.10899353027344 C-10.625,228.10899353027344 2.375,214.60899353027344 2.375,214.60899353027344 C2.375,214.60899353027344 2.375,200.98399353027344 2.375,200.98399353027344z"/><path stroke-linecap="butt" stroke-linejoin="miter" fill-opacity="0" stroke-miterlimit="4" stroke="rgb(255,255,255)" stroke-opacity="1" stroke-width="0" d=" M2.375,200.98399353027344 C2.375,200.98399353027344 -10.625,214.48399353027344 -10.625,214.48399353027344 C-10.625,214.48399353027344 -23.375,201.125 -23.375,201.125 C-23.375,201.125 -23.375,214.625 -23.375,214.625 C-23.375,214.625 -10.625,228.10899353027344 -10.625,228.10899353027344 C-10.625,228.10899353027344 2.375,214.60899353027344 2.375,214.60899353027344 C2.375,214.60899353027344 2.375,200.98399353027344 2.375,200.98399353027344z"/></g></g></g></g></svg>