<svg xmlns="http://www.w3.org/2000/svg" height="46" viewBox="0 0 46 46" width="46"><g fill="none"><path d="m45.2580645 23.9472382c0-1.5579193-.1277241-3.1242599-.4002024-4.6569156h-21.8578621v8.8254024h12.5169682c-.5194116 2.8463607-2.1883407 5.3642952-4.6321297 6.9643205v5.7264061h7.4676062c4.3851963-3.9916419 6.9056198-9.8864718 6.9056198-16.8592134z" fill="#4285f4"/><path d="m23.4140546 46c6.1708855 0 11.3749429-2.0318915 15.1665906-5.5392229l-7.3731153-5.7331378c-2.051357 1.3995601-4.6996253 2.1920821-7.7850681 2.1920821-5.9691126 0-11.0302476-4.0384897-12.846203-9.4681085h-7.60851686v5.9101906c3.88412683 7.7481672 11.79530296 12.6381965 20.44631266 12.6381965z" fill="#34a853"/><path d="m10.3870968 27.4285413c-.99214836-2.8730268-.99214836-5.9840558 0-8.8570826v-5.9585555h-7.86756222c-3.35937944 6.5365609-3.35937944 14.2376327 0 20.7741936z" fill="#fbbc04"/><path d="m23.3323271 9.07694228c3.2489552-.05055932 6.3890536 1.17971732 8.7420341 3.43803332l6.506284-6.54743113c-4.1198092-3.89306718-9.5877673-6.03341147-15.2483181-5.96599905-8.6164302 0-16.49598387 4.88740035-20.36458516 12.63982848l7.56973066 5.9070132c1.8003231-5.4351263 6.8496014-9.47144482 12.7948545-9.47144482z" fill="#ea4335"/></g></svg>